<?xml version="1.0" encoding="utf-8"?>
<!-- Generator: Adobe Illustrator 19.2.1, SVG Export Plug-In . SVG Version: 6.00 Build 0)  -->
<svg version="1.1" id="Ebene_1" xmlns="http://www.w3.org/2000/svg" xmlns:xlink="http://www.w3.org/1999/xlink" x="0px" y="0px"
	 viewBox="0 0 441.5 408.1" style="enable-background:new 0 0 441.5 408.1;" xml:space="preserve">
<style type="text/css">
	.st0{fill:#FFFFFF;}
	.st1{fill:none;}
	.st2{font-family:'ProductSans-Regular';}
	.st3{font-size:130px;}
	.st4{letter-spacing:-6;}
</style>
<g>
	<path class="st0" d="M383.1,158.2c-3.1-1.1-6.5,0.6-7.6,3.7c-1.1,3.1,0.6,6.5,3.7,7.6c31.9,10.9,50.2,24.6,50.2,37.7
		c0,14.1-21.9,29.2-58.6,40.4c-40,12.2-93.3,18.9-150.1,18.9c-56.8,0-110.1-6.7-150.1-18.9C33.9,236.5,12,221.4,12,207.2
		c0-10.8,12.8-22.2,35.5-32l-5.5,8.9c-1.7,2.8-0.9,6.5,1.9,8.3c1,0.6,2.1,0.9,3.1,0.9c2,0,4-1,5.1-2.8l13.3-21.5c0,0,0,0,0-0.1
		c0,0,0,0,0,0c0-0.1,0.1-0.1,0.1-0.2c0.1-0.1,0.1-0.2,0.2-0.3c0-0.1,0.1-0.2,0.1-0.3c0-0.1,0.1-0.2,0.1-0.3c0-0.1,0.1-0.2,0.1-0.3
		c0-0.1,0.1-0.2,0.1-0.3c0-0.1,0-0.2,0.1-0.3c0-0.1,0-0.2,0.1-0.3c0-0.1,0-0.2,0-0.3c0-0.1,0-0.2,0-0.3c0-0.1,0-0.2,0-0.3
		c0-0.1,0-0.2,0-0.3c0-0.1,0-0.2,0-0.3c0-0.1,0-0.2,0-0.3c0-0.1,0-0.2-0.1-0.3c0-0.1,0-0.2-0.1-0.3c0-0.1-0.1-0.2-0.1-0.3
		c0-0.1-0.1-0.2-0.1-0.3c0-0.1-0.1-0.2-0.1-0.3c0-0.1-0.1-0.2-0.1-0.3c0-0.1-0.1-0.2-0.1-0.3c0-0.1-0.1-0.2-0.1-0.3
		c0-0.1-0.1-0.2-0.2-0.2c-0.1-0.1-0.1-0.2-0.2-0.2c-0.1-0.1-0.1-0.2-0.2-0.2c-0.1-0.1-0.1-0.2-0.2-0.2c-0.1-0.1-0.1-0.1-0.2-0.2
		c-0.1-0.1-0.1-0.1-0.2-0.2c-0.1-0.1-0.2-0.1-0.2-0.2c-0.1-0.1-0.2-0.1-0.2-0.2c-0.1-0.1-0.2-0.1-0.3-0.2c-0.1,0-0.1-0.1-0.2-0.1
		c0,0,0,0-0.1,0c0,0,0,0,0,0l-21.7-12.8c-2.9-1.7-6.5-0.7-8.2,2.1c-1.7,2.9-0.7,6.5,2.1,8.2l9,5.3C15.4,175.6,0,190.7,0,207.2
		c0,20.6,23.2,38.5,67.2,51.9c41.1,12.5,95.7,19.4,153.6,19.4s112.5-6.9,153.6-19.4c43.9-13.3,67.2-31.3,67.2-51.9
		C441.5,188.2,421.3,171.2,383.1,158.2z"/>
	<g>
		<path class="st0" d="M218.5,408.1c-28.1,0-52.5-39.8-65.3-106.5c-0.6-3.3,1.5-6.4,4.8-7c3.2-0.6,6.4,1.5,7,4.8
			c11.3,58.8,32.3,96.7,53.5,96.7c21.2,0,42.1-37.8,53.4-96.3c0.6-3.3,3.8-5.4,7-4.8c3.3,0.6,5.4,3.8,4.8,7
			C270.9,368.5,246.5,408.1,218.5,408.1z"/>
		<path class="st0" d="M295.1,84.3c-2.7-1.9-6.4-1.3-8.4,1.4l-5.6,7.9c-5.9-26-13.9-48-23.3-63.9C243.3,5.2,228.4,0,218.5,0
			c-28.2,0-52.6,40-65.4,107c-0.6,3.3,1.5,6.4,4.8,7c0.4,0.1,0.8,0.1,1.1,0.1c2.8,0,5.3-2,5.9-4.9C176.1,50.2,197.2,12,218.5,12
			c19.6,0,39.3,33,51,84.7l-9.2-6.8c-2.7-2-6.4-1.4-8.4,1.3c-2,2.7-1.4,6.4,1.3,8.4l20.3,15c0,0,0,0,0,0c0,0,0,0,0.1,0
			c0.1,0.1,0.3,0.2,0.4,0.3c0.1,0.1,0.2,0.1,0.4,0.2c0.2,0.1,0.3,0.1,0.5,0.2c0.1,0,0.2,0.1,0.4,0.1c0.2,0.1,0.4,0.1,0.6,0.1
			c0.1,0,0.2,0.1,0.3,0.1c0.3,0,0.6,0.1,0.9,0.1c0.2,0,0.5,0,0.7,0c0.1,0,0.1,0,0.2,0c0.2,0,0.3,0,0.5-0.1c0.1,0,0.2,0,0.2-0.1
			c0.1,0,0.3-0.1,0.4-0.1c0.1,0,0.2-0.1,0.2-0.1c0.1-0.1,0.3-0.1,0.4-0.2c0.1,0,0.2-0.1,0.3-0.1c0.1-0.1,0.2-0.1,0.4-0.2
			c0.1-0.1,0.2-0.1,0.3-0.2c0.1-0.1,0.2-0.2,0.3-0.2c0.1-0.1,0.2-0.2,0.2-0.2c0.1-0.1,0.2-0.2,0.3-0.3c0.1-0.1,0.2-0.2,0.2-0.3
			c0.1-0.1,0.1-0.2,0.2-0.3c0,0,0,0,0-0.1c0,0,0,0,0,0l14.6-20.6C298.4,90,297.8,86.2,295.1,84.3z"/>
	</g>
	<rect x="108.5" y="140" class="st1" width="255.2" height="115.9"/>
	<text transform="matrix(1 0 0 1 108.5 233.0786)" class="st0 st2 st3 st4">360°</text>
</g>
</svg>
