<?xml version="1.0" encoding="utf-8"?>
<!-- Generator: Adobe Illustrator 19.1.0, SVG Export Plug-In . SVG Version: 6.00 Build 0)  -->
<svg version="1.1" id="Ebene_1" xmlns="http://www.w3.org/2000/svg" xmlns:xlink="http://www.w3.org/1999/xlink" x="0px" y="0px"
	 viewBox="0 0 595.3 153.7" style="enable-background:new 0 0 595.3 153.7;" xml:space="preserve">
<style type="text/css">
	.st0{fill:#FFFFFF;}
</style>
<g>
	<g>
		<path class="st0" d="M216.3,63.8c0-9.8-7.9-16.6-16.5-16.6c-10.3,0-20,8.5-20,20.1v24.7c0,2.3-1.4,3.7-3.8,3.7c-2.4,0-4-1.4-4-3.7
			V44.3c0-4.9,7.7-5,7.7,0.1V51c3.8-7.8,12-11.1,20.3-11.1c12.3,0,24.1,8.5,24.1,23.8v28.2c0,2.3-1.4,3.7-3.8,3.7
			c-2.3,0-3.9-1.4-3.9-3.7V63.8z"/>
		<path class="st0" d="M268.8,41.1c12,3.3,19.5,13.1,19.7,26.7v-0.1c0.2,2.3-0.9,4.9-5.2,4.9h-42c1.4,8.7,8.8,16,19.5,16
			c4.9,0,10-1.3,14.1-4.5c3.7-3.4,9.3,1,5.1,5.2c-4.9,4.6-12,6.5-18.9,6.4c-8.3,0-16.6-3.2-21.6-9.5C228,71.1,233,46.6,252.8,41.1
			c5-1.5,10.7-1.4,16,0H268.8z M241,66.1h40.1c-0.7-9-6.3-16-14.6-18.1h0.1c-3.5-1-7.9-1-11.5,0.1C246.6,50.4,241.6,57.5,241,66.1z"
			/>
		<path class="st0" d="M295.4,46c-3.4-4.5,3.1-8,6-4.6l17.4,21.5l18.8-21.5c2.8-3.7,9,0.4,6.3,4.1L324,67.7l20.1,22.1
			c3.3,3.7-2.4,8.5-5.8,4.7l-19.4-22.2l-18.2,22.1c-3.7,4.1-9.4-1-5.6-5l18.5-21.7L295.4,46z"/>
		<path class="st0" d="M380.3,96.2c-7.1,0-14-2.9-17.2-8.5v22.9c0,4.9-7.8,4.9-7.8,0v-66c0-2.3,1.5-3.7,3.9-3.7
			c2.4,0,3.6,1.4,3.6,3.7v5c3.6-6.6,11.1-9.4,17.4-9.4c3.3,0,6.9,0.6,10.2,2l-0.1-0.1c11.6,4.8,17.4,15.3,17.1,27.6
			C407.1,84.8,396.2,96.2,380.3,96.2z M363.1,64.1v8.4c0,9.4,7.2,16,16.9,16.4c7.6,0,15.1-4,18.2-11.4c0.9-2.2,1.5-5.1,1.6-7.9
			c0.1-6.9-2.1-13.3-7.9-18.1c-3.1-2.4-6.9-3.7-11-4C371.3,47.5,363.1,53.7,363.1,64.1z"/>
		<path class="st0" d="M418.3,43c0-4.6,7.8-4.7,7.8-0.1v49.4c0,4.7-7.8,4.6-7.8,0V43z"/>
		<path class="st0" d="M464.5,46.5c-11.6,0-19.5,9.5-19.5,21.6c0,4.8,1.4,10.2,4.6,14c3.7,4.6,9.6,7,15.3,7c5.6,0,11.8-1.9,15.5-7
			c2.7-3.6,9,0.5,5.4,4.7c-5.2,6.4-13.2,9.5-21.1,9.5c-8,0-16.1-3.3-21.4-9.5c-4.5-5.5-6.7-13.1-6.3-20.8
			c0.9-15.7,12-26.5,28.2-26.5c7.7,0,13.8,2.6,19.6,9c3.1,3.5-2.7,8-5.6,4.5C475.3,48.3,469.8,46.5,464.5,46.5z"/>
		<path class="st0" d="M503.2,81.6c1.1,4.8,9.4,7.2,17.1,7.2c5.2,0,16.4-2.3,16.4-9.7c0-6.8-8.1-7.1-16.7-7.8
			c-11.5-1.1-23.8-2-23.8-15.1c0-11.4,13-16.3,23.2-16.3c8.2,0,19.6,1.4,23.3,11c1.5,4.8-5.8,6.8-7.2,2.8
			c-2.3-6.2-11.3-6.6-16.1-6.6c-6.2,0-15.4,2.7-15.4,9.3c0,6.8,7.9,6.7,16.4,7.3c11.7,1.1,24.1,2.1,24.1,15.4
			c0,13.4-15.3,16.7-24.1,16.7c-8.8,0-22.4-2.2-24.6-12.9C494.5,78.5,502.3,76.3,503.2,81.6z"/>
	</g>
	<g>
		<circle class="st0" cx="78.6" cy="67.6" r="6.7"/>
		<circle class="st0" cx="125.3" cy="67.6" r="6.7"/>
		<path class="st0" d="M125.3,39.8c-9.8,0-18.4,5.1-23.4,12.7c-5-7.7-13.6-12.7-23.4-12.7c-15.4,0-27.8,12.5-27.8,27.8
			s12.5,27.8,27.8,27.8c9.8,0,18.4-5.1,23.4-12.7c5,7.7,13.6,12.7,23.4,12.7c15.4,0,27.8-12.5,27.8-27.8S140.7,39.8,125.3,39.8z
			 M126.5,87.6c-0.4,0-0.8,0-1.1,0c-7.4,0-14.1-4-17.6-10.5c-0.6-1.1-1.7-1.7-2.9-1.7h-5.7c-1.2,0-2.3,0.7-2.9,1.7
			C92.7,83.6,86,87.7,78.6,87.7c-0.4,0-0.8,0-1.1,0C67.3,87.1,59.2,79,58.6,68.9c-0.4-5.6,1.6-10.9,5.4-15c3.8-4,9.1-6.3,14.6-6.3
			c7.4,0,14.1,4,17.6,10.5c0.6,1.1,1.7,1.8,2.9,1.8h5.7c1.2,0,2.3-0.7,2.9-1.8c3.5-6.5,10.3-10.5,17.6-10.5c5.5,0,10.8,2.3,14.6,6.3
			c3.8,4.1,5.7,9.4,5.4,15C144.7,79,136.6,87.1,126.5,87.6z"/>
	</g>
</g>
</svg>
